<svg xmlns="http://www.w3.org/2000/svg" viewBox="0 0 511 511">
<path fill="#3B8E65" d="M134 107h109v65l13-12 2-2a1594 1594 0 0 0 10-10l2-2 12-14c9-12 19-24 34-27h33l15 1 29 1v3l1 7c7 42 7 42-4 58-12 16-27 29-42 41-6 4-11 9-15 14l-11 10-11 10-2 2-2 2-2 2-1 4a793 793 0 0 1 64 63 424590760 424590760 0 0 1 18 18l2 2 2 2 2 1c2 4 2 7 2 10v11a3919 3919 0 0 1 0 18v20l-1 8-38 4h-3c-25 2-44-1-63-18a278 278 0 0 1-20-21l-25-30-1 65H134V107Z"/><path fill="#F84931" d="M331 139h2a1512 1512 0 0 1 27 0v11l-1 10-4 1-1 3h-2l-1 2-5 5-2 2-5 4-10 11c-5 6-9 12-16 16l-9 8-1 2h-3v2h-2v2h-2l-1 2-5 6-9 9-8 9-6 5-10 9c1 4 1 6 4 8l11 10 2 2a2615 2615 0 0 1 9 8l18 21 2 1a47 47 0 0 1 11 10 1246 1246 0 0 1 25 25c3 4 6 6 11 7 4 3 8 6 10 11v8l-1 3-1 8a209 209 0 0 1-19 1c-13 0-13 0-18-3l-6-8-4-4-4-5-2-1c-4-2-6-5-9-8-4-5-9-10-15-14l-7-7-6-5c-8-7-16-15-22-24l-7-5-4-4-4-4-7 1v2h-2l-1 2-3 4c-6 6-7 12-7 20v2a1495 1495 0 0 0-1 52v3c0 3 0 3-2 5h-41V140h41l1 6v10a5338 5338 0 0 1 0 37v59c4-1 5-3 7-6l10-11 3-3 3-3 2-2 8-6 4-5 6-7 1-2h2v-2l4-3 3-2 2-2 6-6h2v-2l4-3 9-10 1-1h2v-2l5-5 2-2 4-3 1-3h2l2-1 1-2 1-3 4-1 2-4 3-4 1-2 1-1h2v-2c4-3 7-2 12-2Z"/><path fill="#B36043" d="M167 140h41l1 6v10a5338 5338 0 0 1 0 37v59c4-1 5-3 7-6l10-11 3-3 3-3 2-2 8-6 4-5 6-7 1-2h2v-2l4-3 3-2 2-2 6-6 2 1-2 2-7 7-10 10-2 3c-1 4-4 6-6 9l-2 1-9 7-4 4-7 6h-2l-1 2-4 6-2 2c-2 2-2 2-7 2V142h-38v236h38v-73l8-4-3 7-1 10v2a702 702 0 0 0 0 11l-1 16a3500 3500 0 0 1 0 25v3c0 3 0 3-2 5h-41V140Z"/><path fill="#639071" d="M134 107h109v65l2 1-3 1v-66H135v304h107v-66h5l1 5-4-3-1 65H134V107Z"/><path fill="#817251" d="M331 139h2a1512 1512 0 0 1 27 0v11c0 6 0 6-2 10l-1 1-2-1 2-3 1-16-36 1v3h-3l-1 2-5 8-3 3-7 4-5 5-3 1-1 2c-1 4-3 4-6 6l2-4 3-3 2-2 4-3 1-3h2l2-1 1-2 1-3 4-1 2-4 3-4 1-2 1-1h2v-2c4-3 7-2 12-2Z"/>
<path fill="#5F9374" d="m349 105 15 1 29 1 1 7-2 2v-8l-83 1v3l-4 3-10 9-1 2h-2l-1 3-5 5-1 2c-3 3-5 5-10 5l2-3 6-7c19-25 36-28 66-26Z"/>
<path fill="#4E825E" d="m263 196 3 1-6 5 1-5 2-1Z"/></svg>